<svg width="32" height="32" viewBox="0 0 32 32" fill="none" xmlns="http://www.w3.org/2000/svg">
<path fill-rule="evenodd" clip-rule="evenodd" d="M24.4004 4.22852C24.6326 4.22852 24.8334 4.31334 25.0031 4.48298C25.1727 4.65262 25.2576 4.85352 25.2576 5.08566V27.3713C25.2576 27.6035 25.1727 27.8044 25.0031 27.974C24.8334 28.1437 24.6326 28.2285 24.4004 28.2285H7.25753C7.02539 28.2285 6.8245 28.1437 6.65485 27.974C6.48521 27.8044 6.40039 27.6035 6.40039 27.3713V5.08566C6.40039 4.85352 6.48521 4.65262 6.65485 4.48298C6.8245 4.31334 7.02539 4.22852 7.25753 4.22852H24.4004ZM13.2575 8.08566V8.9428C13.2575 9.0678 13.2977 9.17048 13.3781 9.25084C13.4584 9.3312 13.5611 9.37138 13.6861 9.37138H14.5432C14.6682 9.37138 14.7709 9.3312 14.8513 9.25084C14.9316 9.17048 14.9718 9.0678 14.9718 8.9428V8.08566C14.9718 7.96066 14.9316 7.85798 14.8513 7.77762C14.7709 7.69727 14.6682 7.65709 14.5432 7.65709H13.6861C13.5611 7.65709 13.4584 7.69727 13.3781 7.77762C13.2977 7.85798 13.2575 7.96066 13.2575 8.08566ZM13.2575 11.5142V12.3714C13.2575 12.4964 13.2977 12.5991 13.3781 12.6794C13.4584 12.7598 13.5611 12.7999 13.6861 12.7999H14.5432C14.6682 12.7999 14.7709 12.7598 14.8513 12.6794C14.9316 12.5991 14.9718 12.4964 14.9718 12.3714V11.5142C14.9718 11.3892 14.9316 11.2865 14.8513 11.2062C14.7709 11.1258 14.6682 11.0857 14.5432 11.0857H13.6861C13.5611 11.0857 13.4584 11.1258 13.3781 11.2062C13.2977 11.2865 13.2575 11.3892 13.2575 11.5142ZM13.2575 14.9428V15.7999C13.2575 15.9249 13.2977 16.0276 13.3781 16.108C13.4584 16.1883 13.5611 16.2285 13.6861 16.2285H14.5432C14.6682 16.2285 14.7709 16.1883 14.8513 16.108C14.9316 16.0276 14.9718 15.9249 14.9718 15.7999V14.9428C14.9718 14.8178 14.9316 14.7151 14.8513 14.6348C14.7709 14.5544 14.6682 14.5142 14.5432 14.5142H13.6861C13.5611 14.5142 13.4584 14.5544 13.3781 14.6348C13.2977 14.7151 13.2575 14.8178 13.2575 14.9428ZM13.2575 18.3714V19.2285C13.2575 19.3535 13.2977 19.4562 13.3781 19.5365C13.4584 19.6169 13.5611 19.6571 13.6861 19.6571H14.5432C14.6682 19.6571 14.7709 19.6169 14.8513 19.5365C14.9316 19.4562 14.9718 19.3535 14.9718 19.2285V18.3714C14.9718 18.2464 14.9316 18.1437 14.8513 18.0633C14.7709 17.983 14.6682 17.9428 14.5432 17.9428H13.6861C13.5611 17.9428 13.4584 17.983 13.3781 18.0633C13.2977 18.1437 13.2575 18.2464 13.2575 18.3714ZM11.5432 22.6571V21.7999C11.5432 21.6749 11.5031 21.5723 11.4227 21.4919C11.3424 21.4115 11.2397 21.3714 11.1147 21.3714H10.2575C10.1325 21.3714 10.0299 21.4115 9.94949 21.4919C9.86914 21.5723 9.82896 21.6749 9.82896 21.7999V22.6571C9.82896 22.7821 9.86914 22.8848 9.94949 22.9651C10.0299 23.0455 10.1325 23.0856 10.2575 23.0856H11.1147C11.2397 23.0856 11.3424 23.0455 11.4227 22.9651C11.5031 22.8848 11.5432 22.7821 11.5432 22.6571ZM11.5432 19.2285V18.3714C11.5432 18.2464 11.5031 18.1437 11.4227 18.0633C11.3424 17.983 11.2397 17.9428 11.1147 17.9428H10.2575C10.1325 17.9428 10.0299 17.983 9.94949 18.0633C9.86914 18.1437 9.82896 18.2464 9.82896 18.3714V19.2285C9.82896 19.3535 9.86914 19.4562 9.94949 19.5365C10.0299 19.6169 10.1325 19.6571 10.2575 19.6571H11.1147C11.2397 19.6571 11.3424 19.6169 11.4227 19.5365C11.5031 19.4562 11.5432 19.3535 11.5432 19.2285ZM11.5432 15.7999V14.9428C11.5432 14.8178 11.5031 14.7151 11.4227 14.6348C11.3424 14.5544 11.2397 14.5142 11.1147 14.5142H10.2575C10.1325 14.5142 10.0299 14.5544 9.94949 14.6348C9.86914 14.7151 9.82896 14.8178 9.82896 14.9428V15.7999C9.82896 15.9249 9.86914 16.0276 9.94949 16.108C10.0299 16.1883 10.1325 16.2285 10.2575 16.2285H11.1147C11.2397 16.2285 11.3424 16.1883 11.4227 16.108C11.5031 16.0276 11.5432 15.9249 11.5432 15.7999ZM11.5432 12.3714V11.5142C11.5432 11.3892 11.5031 11.2865 11.4227 11.2062C11.3424 11.1258 11.2397 11.0857 11.1147 11.0857H10.2575C10.1325 11.0857 10.0299 11.1258 9.94949 11.2062C9.86914 11.2865 9.82896 11.3892 9.82896 11.5142V12.3714C9.82896 12.4964 9.86914 12.5991 9.94949 12.6794C10.0299 12.7598 10.1325 12.7999 10.2575 12.7999H11.1147C11.2397 12.7999 11.3424 12.7598 11.4227 12.6794C11.5031 12.5991 11.5432 12.4964 11.5432 12.3714ZM11.5432 8.9428V8.08566C11.5432 7.96066 11.5031 7.85798 11.4227 7.77762C11.3424 7.69727 11.2397 7.65709 11.1147 7.65709H10.2575C10.1325 7.65709 10.0299 7.69727 9.94949 7.77762C9.86914 7.85798 9.82896 7.96066 9.82896 8.08566V8.9428C9.82896 9.0678 9.86914 9.17048 9.94949 9.25084C10.0299 9.3312 10.1325 9.37138 10.2575 9.37138H11.1147C11.2397 9.37138 11.3424 9.3312 11.4227 9.25084C11.5031 9.17048 11.5432 9.0678 11.5432 8.9428ZM18.4004 26.0857V23.5143C18.4004 23.3893 18.3602 23.2866 18.2799 23.2062C18.1995 23.1259 18.0968 23.0857 17.9718 23.0857H13.6861C13.5611 23.0857 13.4584 23.1259 13.3781 23.2062C13.2977 23.2866 13.2575 23.3893 13.2575 23.5143V26.0857C13.2575 26.2107 13.2977 26.3134 13.3781 26.3937C13.4584 26.4741 13.5611 26.5143 13.6861 26.5143H17.9718C18.0968 26.5143 18.1995 26.4741 18.2799 26.3937C18.3602 26.3134 18.4004 26.2107 18.4004 26.0857ZM18.4004 19.2285V18.3714C18.4004 18.2464 18.3602 18.1437 18.2799 18.0634C18.1995 17.983 18.0968 17.9428 17.9718 17.9428H17.1147C16.9897 17.9428 16.887 17.983 16.8066 18.0634C16.7263 18.1437 16.6861 18.2464 16.6861 18.3714V19.2285C16.6861 19.3535 16.7263 19.4562 16.8066 19.5366C16.887 19.6169 16.9897 19.6571 17.1147 19.6571H17.9718C18.0968 19.6571 18.1995 19.6169 18.2799 19.5366C18.3602 19.4562 18.4004 19.3535 18.4004 19.2285ZM18.4004 15.8V14.9428C18.4004 14.8178 18.3602 14.7151 18.2799 14.6348C18.1995 14.5544 18.0968 14.5143 17.9718 14.5143H17.1147C16.9897 14.5143 16.887 14.5544 16.8066 14.6348C16.7263 14.7151 16.6861 14.8178 16.6861 14.9428V15.8C16.6861 15.925 16.7263 16.0277 16.8066 16.108C16.887 16.1884 16.9897 16.2285 17.1147 16.2285H17.9718C18.0968 16.2285 18.1995 16.1884 18.2799 16.108C18.3602 16.0277 18.4004 15.925 18.4004 15.8ZM18.4004 12.3714V11.5143C18.4004 11.3893 18.3602 11.2866 18.2799 11.2062C18.1995 11.1259 18.0968 11.0857 17.9718 11.0857H17.1147C16.9897 11.0857 16.887 11.1259 16.8066 11.2062C16.7263 11.2866 16.6861 11.3893 16.6861 11.5143V12.3714C16.6861 12.4964 16.7263 12.5991 16.8066 12.6794C16.887 12.7598 16.9897 12.8 17.1147 12.8H17.9718C18.0968 12.8 18.1995 12.7598 18.2799 12.6794C18.3602 12.5991 18.4004 12.4964 18.4004 12.3714ZM18.4004 8.94284V8.08569C18.4004 7.96069 18.3602 7.85801 18.2799 7.77766C18.1995 7.6973 18.0968 7.65712 17.9718 7.65712H17.1147C16.9897 7.65712 16.887 7.6973 16.8066 7.77766C16.7263 7.85801 16.6861 7.96069 16.6861 8.08569V8.94284C16.6861 9.06784 16.7263 9.17051 16.8066 9.25087C16.887 9.33123 16.9897 9.37141 17.1147 9.37141H17.9718C18.0968 9.37141 18.1995 9.33123 18.2799 9.25087C18.3602 9.17051 18.4004 9.06784 18.4004 8.94284ZM21.829 22.6572V21.8C21.829 21.675 21.7888 21.5723 21.7084 21.492C21.6281 21.4116 21.5254 21.3714 21.4004 21.3714H20.5432C20.4182 21.3714 20.3156 21.4116 20.2352 21.492C20.1548 21.5723 20.1147 21.675 20.1147 21.8V22.6572C20.1147 22.7822 20.1548 22.8848 20.2352 22.9652C20.3156 23.0455 20.4182 23.0857 20.5432 23.0857H21.4004C21.5254 23.0857 21.6281 23.0455 21.7084 22.9652C21.7888 22.8848 21.829 22.7822 21.829 22.6572ZM21.829 19.2286V18.3714C21.829 18.2464 21.7888 18.1438 21.7084 18.0634C21.6281 17.983 21.5254 17.9429 21.4004 17.9429H20.5432C20.4182 17.9429 20.3156 17.983 20.2352 18.0634C20.1548 18.1438 20.1147 18.2464 20.1147 18.3714V19.2286C20.1147 19.3536 20.1548 19.4563 20.2352 19.5366C20.3156 19.617 20.4182 19.6572 20.5432 19.6572H21.4004C21.5254 19.6572 21.6281 19.617 21.7084 19.5366C21.7888 19.4563 21.829 19.3536 21.829 19.2286ZM21.829 15.8V14.9429C21.829 14.8179 21.7888 14.7152 21.7084 14.6348C21.6281 14.5545 21.5254 14.5143 21.4004 14.5143H20.5432C20.4182 14.5143 20.3156 14.5545 20.2352 14.6348C20.1548 14.7152 20.1147 14.8179 20.1147 14.9429V15.8C20.1147 15.925 20.1548 16.0277 20.2352 16.1081C20.3156 16.1884 20.4182 16.2286 20.5432 16.2286H21.4004C21.5254 16.2286 21.6281 16.1884 21.7084 16.1081C21.7888 16.0277 21.829 15.925 21.829 15.8ZM21.829 12.3715V11.5143C21.829 11.3893 21.7888 11.2866 21.7084 11.2063C21.6281 11.1259 21.5254 11.0857 21.4004 11.0857H20.5432C20.4182 11.0857 20.3156 11.1259 20.2352 11.2063C20.1548 11.2866 20.1147 11.3893 20.1147 11.5143V12.3715C20.1147 12.4965 20.1548 12.5991 20.2352 12.6795C20.3156 12.7598 20.4182 12.8 20.5432 12.8H21.4004C21.5254 12.8 21.6281 12.7598 21.7084 12.6795C21.7888 12.5991 21.829 12.4965 21.829 12.3715ZM21.829 8.94288V8.08574C21.829 7.96074 21.7888 7.85806 21.7084 7.7777C21.6281 7.69735 21.5254 7.65717 21.4004 7.65717H20.5432C20.4182 7.65717 20.3156 7.69735 20.2352 7.7777C20.1548 7.85806 20.1147 7.96074 20.1147 8.08574V8.94288C20.1147 9.06788 20.1548 9.17056 20.2352 9.25092C20.3156 9.33128 20.4182 9.37146 20.5432 9.37146H21.4004C21.5254 9.37146 21.6281 9.33128 21.7084 9.25092C21.7888 9.17056 21.829 9.06788 21.829 8.94288Z" fill="#5FA1DB"/>
</svg>
