<svg width="24" height="20" viewBox="0 0 24 20" fill="none" xmlns="http://www.w3.org/2000/svg">
<path fill-rule="evenodd" clip-rule="evenodd" d="M8.86332 16.3374C9.20261 16.6767 9.37225 17.0785 9.37225 17.5428C9.37225 18.007 9.20261 18.4088 8.86332 18.7481C8.52403 19.0874 8.12225 19.2571 7.65796 19.2571C7.19367 19.2571 6.79189 19.0874 6.4526 18.7481C6.11331 18.4088 5.94367 18.007 5.94367 17.5428C5.94367 17.0785 6.11331 16.6767 6.4526 16.3374C6.79189 15.9981 7.19367 15.8285 7.65796 15.8285C8.12225 15.8285 8.52403 15.9981 8.86332 16.3374ZM20.8633 16.3374C21.2026 16.6767 21.3722 17.0785 21.3722 17.5428C21.3722 18.007 21.2026 18.4088 20.8633 18.7481C20.524 19.0874 20.1222 19.2571 19.658 19.2571C19.1937 19.2571 18.7919 19.0874 18.4526 18.7481C18.1133 18.4088 17.9437 18.007 17.9437 17.5428C17.9437 17.0785 18.1133 16.6767 18.4526 16.3374C18.7919 15.9981 19.1937 15.8285 19.658 15.8285C20.1222 15.8285 20.524 15.9981 20.8633 16.3374ZM23.0865 2.97132V9.82847C23.0865 10.0428 23.0129 10.2325 22.8656 10.3977C22.7182 10.5628 22.5374 10.6588 22.3231 10.6856L8.34098 12.3195C8.45705 12.8553 8.51509 13.1678 8.51509 13.257C8.51509 13.3999 8.40795 13.6856 8.19366 14.1142H20.5151C20.7472 14.1142 20.9481 14.199 21.1178 14.3687C21.2874 14.5383 21.3722 14.7392 21.3722 14.9713C21.3722 15.2035 21.2874 15.4044 21.1178 15.574C20.9481 15.7436 20.7472 15.8285 20.5151 15.8285H6.80078C6.56864 15.8285 6.36775 15.7436 6.1981 15.574C6.02846 15.4044 5.94364 15.2035 5.94364 14.9713C5.94364 14.8731 5.97935 14.7325 6.05078 14.5495C6.12221 14.3664 6.19364 14.2057 6.26507 14.0673C6.3365 13.9289 6.43248 13.7503 6.55301 13.5316C6.67355 13.3128 6.74275 13.1811 6.7606 13.1365L4.39007 2.11419H1.65792C1.42578 2.11419 1.22489 2.02937 1.05525 1.85972C0.885603 1.69008 0.800781 1.48919 0.800781 1.25704C0.800781 1.0249 0.885603 0.824009 1.05525 0.654366C1.22489 0.484724 1.42578 0.399902 1.65792 0.399902H5.08649C5.22935 0.399902 5.35658 0.42892 5.46819 0.486956C5.5798 0.544992 5.66685 0.614188 5.72935 0.694546C5.79185 0.774903 5.84988 0.884278 5.90346 1.02267C5.95703 1.16106 5.99274 1.27713 6.0106 1.37088C6.02846 1.46463 6.05301 1.59633 6.08426 1.76597C6.11551 1.93562 6.1356 2.05169 6.14453 2.11419H22.2293C22.4615 2.11419 22.6624 2.19901 22.832 2.36865C23.0016 2.5383 23.0865 2.73919 23.0865 2.97133L23.0865 2.97132Z" fill="#73C982"/>
</svg>
